<svg width="106" height="24" viewBox="0 0 106 24" fill="none" xmlns="http://www.w3.org/2000/svg">
<path d="M12.2506 24.0004C6.54663 24.0004 0.633255 19.205 0.624881 12.6478C0.622787 10.9761 1.80463 8.95996 4.0364 8.95996C6.26818 8.95996 7.35581 10.2695 7.53376 12.6478C7.81849 16.4425 9.29762 19.3547 9.58654 19.9105C9.61062 19.9556 9.62423 19.9828 9.63051 19.9964C10.5171 21.8053 12.2758 22.917 14.4437 22.917C15.838 22.917 17.0324 22.4019 18.0709 21.5258C16.2547 23.2718 14.338 24.0004 12.2486 24.0004H12.2506Z" fill="#022A9A"/>
<path d="M25.6904 5.36084C31.3934 5.36084 37.3067 10.1562 37.3162 16.7134C37.3183 18.3851 36.1364 20.4013 33.9046 20.4013C31.6729 20.4013 30.5852 19.0917 30.4073 16.7134C30.0995 12.6099 28.4006 9.53862 28.3095 9.36485C27.4019 7.63135 25.5889 6.44428 23.4963 6.44428C22.102 6.44428 20.9076 6.9593 19.8691 7.83548C21.6853 6.08941 23.602 5.36084 25.6914 5.36084H25.6904Z" fill="#022A9A"/>
<path d="M28.3055 9.35856C27.3958 7.6282 25.5859 6.44531 23.4965 6.44531C22.1021 6.44531 20.9077 6.96034 19.8693 7.83651L19.8547 7.84907C15.8203 11.4605 13.5173 18.3014 9.58765 19.9103C9.61172 19.9553 9.62533 19.9825 9.63161 19.9961C10.5183 21.805 12.2769 22.9167 14.4448 22.9167C15.8391 22.9167 17.0335 22.4017 18.072 21.5255C22.2581 17.8062 24.0974 11.2889 28.3055 9.35856Z" fill="#FF5874"/>
<path d="M95.5614 6.22944V3.27118C97.43 3.17802 98.707 1.83811 98.8002 0.000976562H101.79C101.727 3.45856 99.0179 6.10592 95.5604 6.23049L95.5614 6.22944Z" fill="#022A9A"/>
<path d="M78.577 20.3814V23.638H77.6119C75.4408 23.638 74.0842 22.7336 73.6623 21.0451C72.426 22.8539 70.4664 24.0002 68.1143 24.0002C63.7732 24.0002 60.5469 20.5332 60.5469 15.9503C60.5469 11.3674 63.7732 7.90039 68.1143 7.90039C70.3753 7.90039 72.2753 8.95557 73.5105 10.6441V8.26258H76.8875V18.9661C76.8875 19.8402 77.4004 20.3835 78.3049 20.3835H78.576L78.577 20.3814ZM73.5116 15.9492C73.5116 13.2359 71.4912 11.1549 68.7779 11.1549C66.0646 11.1549 64.0139 13.2349 64.0139 15.9492C64.0139 18.6636 66.0343 20.7425 68.7779 20.7425C71.5216 20.7425 73.5116 18.6625 73.5116 15.9492Z" fill="#022A9A"/>
<path d="M81.3134 0H84.9008V23.6378H81.3134V0Z" fill="#022A9A"/>
<path d="M105.375 20.3814V23.638H104.41C102.239 23.638 100.882 22.7336 100.46 21.0451C99.2242 22.8539 97.2646 24.0002 94.9135 24.0002C90.5713 24.0002 87.3461 20.5332 87.3461 15.9503C87.3461 11.3674 90.5724 7.90039 94.9135 7.90039C97.1745 7.90039 99.0745 8.95557 100.31 10.6441V8.26258H103.687V18.9661C103.687 19.8402 104.2 20.3835 105.104 20.3835H105.375V20.3814ZM100.31 15.9492C100.31 13.2359 98.2894 11.1549 95.5761 11.1549C92.8628 11.1549 90.8121 13.2349 90.8121 15.9492C90.8121 18.6636 92.8324 20.7425 95.5761 20.7425C98.3197 20.7425 100.31 18.6625 100.31 15.9492Z" fill="#022A9A"/>
<path d="M51.1404 23.9987C46.8642 23.9987 44.2325 21.6811 44.2325 18.0979V8.31348H47.5844V17.0124C47.5844 19.6912 48.9913 20.7777 51.1456 20.7777C53.4193 20.7777 54.9455 19.5718 54.9455 17.0124V8.31348H58.2974V18.1251C58.2974 22.0245 55.4365 23.9987 51.1414 23.9987H51.1404Z" fill="#022A9A"/>
</svg>
